<?xml version="1.0" encoding="utf-8"?>
<!-- Generator: Adobe Illustrator 22.1.0, SVG Export Plug-In . SVG Version: 6.00 Build 0)  -->
<svg version="1.1" id="图层_1" xmlns="http://www.w3.org/2000/svg" xmlns:xlink="http://www.w3.org/1999/xlink" x="0px" y="0px"
	 viewBox="0 0 101.1 111.6" style="enable-background:new 0 0 101.1 111.6;" xml:space="preserve">
<path d="M17.9,103.3c0.3,0.2,0.6,0.4,1,0.5c1,0.2,2.3-0.2,3.3-1.1l58-47c1.2-0.9,2-2.3,2-3.5c0-1.2-0.7-2.1-1.8-2.3l-20-3.6
	l22.7-33.6c1-1.5,1.1-3.2,0.1-4.1c-1-0.9-2.8-0.7-4.2,0.4l-58,42.7c-1.3,0.9-2.1,2.3-2.2,3.6c-0.1,1.3,0.6,2.2,1.8,2.4l22.1,4
	L18,99.1C16.9,100.6,16.9,102.4,17.9,103.3z"/>
</svg>
